<svg width="153" height="74" viewBox="0 0 153 74" fill="none" xmlns="http://www.w3.org/2000/svg">
<path d="M7.36783 60.4015V72.9999H0.423828V40.9087H14.907V46.9103H7.36783V54.5983H14.411V60.4015H7.36783Z" fill="black"/>
<path d="M25.9194 40.9087V72.9999H18.9754V40.9087H25.9194Z" fill="black"/>
<path d="M49.6848 40.9087L44.576 56.9295L50.3296 72.9999H43.088L39.7152 61.7903L36.3424 72.9999H29.0512L34.8048 56.9295L29.7952 40.9087H36.5408L39.7152 51.2751L42.8896 40.9087H49.6848Z" fill="black"/>
<path d="M51.6277 46.8111V40.9087H68.9877V46.8111H63.7797V72.9999H56.8357V46.8111H51.6277Z" fill="black"/>
<path d="M83.6174 45.9183H90.5614V66.9487C90.5614 71.3135 88.5112 73.4959 84.411 73.4959H78.2606C74.1603 73.4959 72.1102 71.3135 72.1102 66.9487V45.9183H79.0542V67.5439C79.0542 67.8084 79.1368 68.0399 79.3022 68.2383C79.5006 68.4367 79.732 68.5359 79.9966 68.5359H82.675C82.9395 68.5359 83.1544 68.4367 83.3198 68.2383C83.5182 68.0399 83.6174 67.8084 83.6174 67.5439V45.9183Z" fill="black"/>
<path d="M102.257 59.8559V72.9999H95.3129V40.9087H107.663C111.764 40.9087 113.814 43.0911 113.814 47.4559V51.1759C113.814 53.8212 112.871 55.5076 110.986 56.2351C112.64 56.8303 113.466 58.186 113.466 60.3023V72.9999H106.522V60.8479C106.522 60.1866 106.208 59.8559 105.58 59.8559H102.257ZM102.257 45.6207V54.9951H105.927C106.192 54.9951 106.407 54.8959 106.572 54.6975C106.77 54.4991 106.87 54.2676 106.87 54.0031V46.6127C106.87 46.3482 106.77 46.1167 106.572 45.9183C106.407 45.7199 106.192 45.6207 105.927 45.6207H102.257Z" fill="black"/>
<path d="M125.216 67.2463H132.904V72.9999H118.272V40.9087H132.904V46.5631H125.216V54.1023H132.408V59.5583H125.216V67.2463Z" fill="black"/>
<path d="M152.842 45.4223L143.27 67.8415H152.842V72.9999H136.028V68.7343L145.65 46.1167H136.326V40.9087H152.842V45.4223Z" fill="black"/>
<path d="M89.0002 34.5C89.0002 38.6421 85.6423 41.5 81.5002 41.5C77.3581 41.5 74 38.6421 74 34.5C74 34.5 77.3579 34.5 81.5 34.5C85.6421 34.5 89.0002 34.5 89.0002 34.5Z" stroke="#EB7C4F" stroke-width="4" stroke-linecap="round" stroke-linejoin="round"/>
<path d="M105.5 34.5014H58C58 13.5 82 14.5002 81.5 14.5002C100 15.0002 105.167 27.5014 105.5 34.5014Z" stroke="#7291A6" stroke-width="4" stroke-linecap="round" stroke-linejoin="round"/>
<path d="M81.5 2V14.5" stroke="#7291A6" stroke-width="4" stroke-linecap="round" stroke-linejoin="round"/>
</svg>
