<svg width="41" height="41" fill="none" xmlns="http://www.w3.org/2000/svg"><circle cx="20.5" cy="20.5" r="20.5" fill="#fff"/><path d="M17.25 25.732h1.98c.25-.5.652-.975 1.461-.975s1.301.475 1.461.975h6.098v-10.75h-2.559v5.47c0 .32-.263.58-.588.58a.593.593 0 0 1-.418-.172l-.793-.787-.848-.823-.816.817-.828.81a.594.594 0 0 1-.832-.002.575.575 0 0 1-.17-.409v-5.484H17.25v10.75Zm12.28-8.23h3.743L36 22.537v4.482h-2.185a1.763 1.763 0 0 1-1.683 1.213c-.788 0-1.455-.51-1.682-1.213h-8.062a1.763 1.763 0 0 1-1.682 1.213c-.788 0-1.456-.51-1.682-1.213H16V15.182c0-.801.658-1.45 1.47-1.45h10.59c.812 0 1.47.649 1.47 1.45v2.32Zm-8.03-2.52v4l1.526-1.426 1.474 1.398v-3.972h-3Zm9.128 10.75c.157-.5.857-1.024 1.496-1.024.638 0 1.31.524 1.495 1.024h1.131v-2.793l-2.239-4.207H29.5v7h1.129Zm-9.878 1.25a.5.5 0 1 0 0-1 .5.5 0 0 0 0 1Zm11.375 0a.5.5 0 1 0 0-1 .5.5 0 0 0 0 1Z" fill="#000"/><path opacity=".3" d="M13.322 21.697H4.573A.58.58 0 0 1 4 21.095a.59.59 0 0 1 .573-.602c.426-.015 8.337-.015 8.749 0a.58.58 0 0 1 .572.602.58.58 0 0 1-.572.602Zm0-2.5H7.073a.58.58 0 0 1-.573-.602.59.59 0 0 1 .573-.602 445.68 445.68 0 0 1 6.249 0 .58.58 0 0 1 .572.602.58.58 0 0 1-.572.602Zm0 5H9.573A.58.58 0 0 1 9 23.595a.59.59 0 0 1 .573-.602c.426-.015 3.337-.015 3.749 0a.58.58 0 0 1 .572.602.58.58 0 0 1-.572.602Zm8.428-8.965h2.75v3.722l-1.474-1.398-1.276 1.426v-3.75Zm8.878 10.5h-.878v-6.75h2.761l2.239 3.957v2.793h-1.13c-.186-.5-.858-1.024-1.496-1.024-.639 0-1.34.524-1.496 1.024ZM29.422 9.314l.393.31-.617.786-.394-.31-.19-.147-.399-.302.604-.797.399.302.204.158Zm-2.11-1.403.436.244-.488.873-.437-.244c-.07-.04-.14-.078-.21-.116l-.441-.236.472-.882.441.237c.076.04.151.082.226.124Zm-2.124-.977.47.173-.346.938-.47-.173a14.061 14.061 0 0 0-.226-.081l-.472-.165.33-.944.471.165c.081.028.163.057.243.087Zm-2.23-.63.49.098-.197.98-.49-.098a14.056 14.056 0 0 0-.237-.046l-.492-.09.18-.984.492.09c.085.016.17.032.254.05Zm-2.318-.282.5.022-.043.999-.5-.022-.24-.008-.5-.013.025-1 .5.013.258.009Zm-2.336.08.497-.056.111.994-.496.056-.24.029-.496.064-.129-.991.496-.065c.085-.01.171-.021.257-.03Zm-2.266.433.483-.131.262.965-.482.131-.232.065-.48.14-.28-.96.48-.14.25-.07Zm-2.194.786.456-.205.41.912-.456.205-.22.101-.452.213-.425-.905.452-.213c.078-.037.156-.073.235-.108Zm-2.047 1.12.418-.273.547.837-.418.273-.201.134-.414.28-.561-.827.413-.28.216-.144Zm-1.85 1.426.371-.335.67.743-.371.335a8.563 8.563 0 0 0-.173.159l-.006.004-.365.341-.682-.73.365-.342.006-.005.185-.17Zm-1.603 1.686.315-.388.776.632-.315.387a8.87 8.87 0 0 0-.15.189l-.31.393-.786-.618.309-.393.16-.202Zm-1.325 1.915.252-.432.864.503-.251.432-.12.21-.244.437-.873-.488.244-.437.128-.224Zm-.816 13.457-.197-.46.919-.394.197.46.097.22.205.456-.912.41-.205-.455-.104-.237Zm1.085 2.065-.266-.423.846-.533.267.423c.042.068.086.136.13.203l.274.419-.837.547-.274-.418a15.228 15.228 0 0 1-.14-.218Zm1.394 1.873-.328-.377.753-.657.329.376.16.181.335.371-.742.67-.335-.37a15.054 15.054 0 0 1-.171-.194Zm1.66 1.632-.382-.322.644-.765.383.322c.062.052.124.104.186.154l.388.316-.63.776-.388-.316-.2-.165Zm1.892 1.356-.428-.259.518-.855.428.258c.069.042.138.083.208.123l.432.252-.502.864-.433-.25a15.15 15.15 0 0 1-.223-.133Zm2.087 1.048-.463-.189.377-.926.463.189.224.089.467.18-.362.933-.466-.18-.24-.096Zm2.21.706-.486-.115.23-.973.486.115.236.053.488.107-.213.977-.488-.107a14.567 14.567 0 0 1-.253-.057Zm2.306.359-.499-.039.077-.997.499.039.24.016.5.03-.06.998-.5-.03a15.858 15.858 0 0 1-.257-.017Zm2.337-.002-.498.039-.079-.997.499-.04c.08-.005.16-.012.24-.02l.498-.048.096.996-.498.047c-.086.009-.172.016-.258.023Zm2.281-.357-.486.115-.23-.973.486-.115.234-.058.485-.123.247.969-.485.123a14.37 14.37 0 0 1-.25.062Zm2.22-.712-.462.19-.379-.926.463-.19c.074-.03.148-.06.222-.092l.46-.198.395.919-.46.197c-.08.034-.159.068-.239.1Zm2.084-1.05-.428.26-.518-.855.427-.26c.069-.041.137-.083.205-.126l.423-.267.533.846-.422.267a15.13 15.13 0 0 1-.22.136Zm1.895-1.362-.382.322-.644-.764.382-.322.183-.158.377-.329.657.754-.376.329-.197.168Zm1.66-1.633-.328.377-.754-.657.328-.377c.053-.06.106-.122.157-.184l.322-.382.765.643-.321.383-.169.197Zm2.657-15.29.181.467-.932.363-.181-.466-.09-.224-.19-.463.926-.379.19.463.096.24Zm-1.046-2.243.252.432-.864.504-.252-.432a8.666 8.666 0 0 0-.123-.207l-.26-.428.855-.518.26.427.132.222Zm-1.61-2.206.335.37-.74.672-.336-.37-.164-.178-.342-.364.73-.684.341.364c.06.063.118.127.176.19Z" fill="#000"/></svg>