<svg width="11" height="6" viewBox="0 0 11 6" fill="none" xmlns="http://www.w3.org/2000/svg">
<path d="M-4.80825e-07 9.61651e-07C-4.17682e-07 0.722271 0.142262 1.43747 0.418663 2.10476C0.695063 2.77205 1.10019 3.37837 1.61091 3.88909C2.12163 4.39981 2.72795 4.80494 3.39524 5.08134C4.06253 5.35774 4.77773 5.5 5.5 5.5C6.22227 5.5 6.93747 5.35774 7.60476 5.08134C8.27205 4.80494 8.87837 4.39981 9.38909 3.88909C9.89981 3.37836 10.3049 2.77205 10.5813 2.10476C10.8577 1.43747 11 0.72227 11 -4.76837e-07L-4.80825e-07 9.61651e-07Z" fill="#7291A6"/>
</svg>
