<svg width="54" height="54" fill="none" xmlns="http://www.w3.org/2000/svg"><path d="M27 .5C41.636.5 53.5 12.364 53.5 27S41.636 53.5 27 53.5.5 41.636.5 27 12.364.5 27 .5Z" fill="#fff" stroke="#F1F1F1"/><path d="M39.418 28.217a10.678 10.678 0 0 0-.26-2.547h-11.7v4.623h6.866a6.087 6.087 0 0 1-2.547 4.042l-.019.155 3.7 2.865.256.026a12.18 12.18 0 0 0 3.71-9.164" fill="#4285F4"/><path d="M27.458 40.398a11.875 11.875 0 0 0 8.25-3.018l-3.93-3.045a7.374 7.374 0 0 1-4.32 1.246 7.5 7.5 0 0 1-7.087-5.177l-.142.012-3.85 2.977-.05.139a12.449 12.449 0 0 0 11.13 6.866Z" fill="#34A853"/><path d="M20.37 30.404a7.669 7.669 0 0 1-.414-2.464 8.06 8.06 0 0 1 .4-2.464l-.006-.165-3.894-3.024-.127.06a12.432 12.432 0 0 0 0 11.186l4.042-3.13Z" fill="#FBBC05"/><path d="M27.458 20.299a6.9 6.9 0 0 1 4.817 1.855l3.516-3.433a11.97 11.97 0 0 0-8.333-3.24 12.45 12.45 0 0 0-11.129 6.867l4.028 3.128a7.531 7.531 0 0 1 7.1-5.177" fill="#EB4335"/></svg>