<svg width="32" height="32" fill="none" xmlns="http://www.w3.org/2000/svg"><g filter="url(#ic_CircleHeart__a)"><path d="M2 14C2 6.268 8.268 0 16 0s14 6.268 14 14-6.268 14-14 14S2 21.732 2 14Z" fill="#fff" fill-opacity=".4" shape-rendering="crispEdges"/><path clip-rule="evenodd" d="M15.49 23.366a31.936 31.936 0 0 1-5.52-4.298 10.991 10.991 0 0 1-2.628-4.189c-.986-3.066.166-6.577 3.39-7.615a5.48 5.48 0 0 1 4.973.837 5.488 5.488 0 0 1 4.973-.837c3.224 1.038 4.384 4.549 3.398 7.615a10.99 10.99 0 0 1-2.628 4.19 31.933 31.933 0 0 1-5.52 4.297l-.215.134-.224-.134Z" stroke="#000" stroke-width="1.5" stroke-linecap="round" stroke-linejoin="round"/><path opacity=".4" d="M19.136 10.715a2.55 2.55 0 0 1 1.757 2.22" stroke="#000" stroke-width="1.5" stroke-linecap="round" stroke-linejoin="round"/></g><defs><filter id="ic_CircleHeart__a" x="0" y="0" width="32" height="32" filterUnits="userSpaceOnUse" color-interpolation-filters="sRGB"><feFlood flood-opacity="0" result="BackgroundImageFix"/><feColorMatrix in="SourceAlpha" values="0 0 0 0 0 0 0 0 0 0 0 0 0 0 0 0 0 0 127 0" result="hardAlpha"/><feOffset dy="2"/><feGaussianBlur stdDeviation="1"/><feComposite in2="hardAlpha" operator="out"/><feColorMatrix values="0 0 0 0 0 0 0 0 0 0 0 0 0 0 0 0 0 0 0.12 0"/><feBlend in2="BackgroundImageFix" result="effect1_dropShadow_925_2905"/><feBlend in="SourceGraphic" in2="effect1_dropShadow_925_2905" result="shape"/></filter></defs></svg>