<svg width="28" height="28" fill="none" xmlns="http://www.w3.org/2000/svg"><path fill-rule="evenodd" clip-rule="evenodd" d="M14.288 6.005 14.002 6c-4.14 0-7.873 2.923-9.941 7.706a.741.741 0 0 0 0 .588l.143.323c2.042 4.476 5.571 7.247 9.508 7.378l.286.005c4.14 0 7.873-2.923 9.941-7.706a.741.741 0 0 0-.003-.595l-.14-.313C21.75 8.9 18.22 6.136 14.289 6.005Zm-.279 1.484.239.006.267.013c3.197.227 6.137 2.597 7.914 6.491l-.01.024c-1.82 3.977-4.862 6.362-8.16 6.482l-.255.004-.257-.004-.266-.014c-3.098-.219-5.955-2.457-7.742-6.131L5.57 14l.157-.334C7.61 9.773 10.69 7.49 14.009 7.49Zm-.01 2.625c-2.16 0-3.91 1.74-3.91 3.886s1.75 3.886 3.91 3.886 3.912-1.74 3.912-3.886c0-2.147-1.751-3.886-3.912-3.886Zm0 1.49A2.404 2.404 0 0 1 16.412 14 2.404 2.404 0 0 1 14 16.396 2.403 2.403 0 0 1 11.59 14 2.403 2.403 0 0 1 14 11.604Z" fill="#262626"/></svg>