<svg width="28" height="28" fill="none" xmlns="http://www.w3.org/2000/svg"><path fill-rule="evenodd" clip-rule="evenodd" d="M22.418 5.216a.758.758 0 0 0-1.06 0l-2.089 2.055C17.657 6.163 15.856 5.575 14 5.575c-2.057 0-4.053.72-5.781 2.067-1.708 1.322-3.132 3.229-4.158 5.566a.727.727 0 0 0 0 .584c.885 2.03 2.075 3.734 3.493 5.008l-1.97 1.94-.074.083a.73.73 0 0 0 .073.96.758.758 0 0 0 1.06 0L22.419 6.26l.072-.083a.73.73 0 0 0-.072-.96ZM8.616 17.755l2.138-2.104a3.764 3.764 0 0 1-.668-2.15c0-2.133 1.748-3.854 3.914-3.854.792 0 1.553.235 2.187.658l2.002-1.971C16.881 7.49 15.457 7.052 14 7.052c-1.71 0-3.38.602-4.852 1.749-1.41 1.091-2.619 2.66-3.53 4.6l-.048.1.046.1c.793 1.694 1.814 3.103 3 4.154Zm6.478-6.375A2.44 2.44 0 0 0 14 11.123c-1.338 0-2.414 1.06-2.414 2.378 0 .384.09.748.26 1.075l3.248-3.196Zm2.043 1.936.101.01a.74.74 0 0 1 .605.858c-.287 1.573-1.544 2.812-3.14 3.097a.75.75 0 0 1-.873-.594.74.74 0 0 1 .604-.858 2.389 2.389 0 0 0 1.933-1.906.748.748 0 0 1 .77-.607Zm3.86-3.502a.758.758 0 0 1 1.05.146c.726.95 1.36 2.038 1.891 3.247a.728.728 0 0 1 0 .586c-2.077 4.736-5.803 7.631-9.938 7.631a8.88 8.88 0 0 1-2.77-.444.736.736 0 0 1-.473-.934.753.753 0 0 1 .948-.466 7.34 7.34 0 0 0 2.295.368c3.305 0 6.381-2.262 8.273-6.118l.155-.329-.053-.116a14.334 14.334 0 0 0-1.285-2.21l-.241-.327a.73.73 0 0 1 .148-1.034Z" fill="#262626"/></svg>