<svg width="78" height="78" fill="none" xmlns="http://www.w3.org/2000/svg"><g filter="url(#ic_photo_change__a)"><circle cx="39" cy="23" r="15" fill="#fff"/></g><path d="M33 17h2.25l1.5-1.5h4.5l1.5 1.5H45a1.5 1.5 0 0 1 1.5 1.5v9A1.5 1.5 0 0 1 45 29H33a1.5 1.5 0 0 1-1.5-1.5v-9A1.5 1.5 0 0 1 33 17Zm6 2.25a3.75 3.75 0 1 0 0 7.499 3.75 3.75 0 0 0 0-7.5Zm0 1.5a2.25 2.25 0 1 1 0 4.5 2.25 2.25 0 0 1 0-4.5Z" fill="#808083"/><defs><filter id="ic_photo_change__a" x="0" y="0" width="78" height="78" filterUnits="userSpaceOnUse" color-interpolation-filters="sRGB"><feFlood flood-opacity="0" result="BackgroundImageFix"/><feColorMatrix in="SourceAlpha" values="0 0 0 0 0 0 0 0 0 0 0 0 0 0 0 0 0 0 127 0" result="hardAlpha"/><feOffset/><feGaussianBlur stdDeviation=".5"/><feColorMatrix values="0 0 0 0 0 0 0 0 0 0 0 0 0 0 0 0 0 0 0.04 0"/><feBlend in2="BackgroundImageFix" result="effect1_dropShadow_881_5680"/><feColorMatrix in="SourceAlpha" values="0 0 0 0 0 0 0 0 0 0 0 0 0 0 0 0 0 0 127 0" result="hardAlpha"/><feOffset dy="2"/><feGaussianBlur stdDeviation="3"/><feColorMatrix values="0 0 0 0 0 0 0 0 0 0 0 0 0 0 0 0 0 0 0.04 0"/><feBlend in2="effect1_dropShadow_881_5680" result="effect2_dropShadow_881_5680"/><feColorMatrix in="SourceAlpha" values="0 0 0 0 0 0 0 0 0 0 0 0 0 0 0 0 0 0 127 0" result="hardAlpha"/><feOffset dy="16"/><feGaussianBlur stdDeviation="12"/><feColorMatrix values="0 0 0 0 0 0 0 0 0 0 0 0 0 0 0 0 0 0 0.06 0"/><feBlend in2="effect2_dropShadow_881_5680" result="effect3_dropShadow_881_5680"/><feBlend in="SourceGraphic" in2="effect3_dropShadow_881_5680" result="shape"/></filter></defs></svg>