<svg width="60" height="60" fill="none" xmlns="http://www.w3.org/2000/svg"><path clip-rule="evenodd" d="M7 14.937V9.982c0-1.368.484-2.536 1.452-3.503.967-.968 2.135-1.452 3.503-1.452h12.711c1.368 0 2.536.484 3.504 1.452.967.967 1.451 2.135 1.451 3.503v12.711c0 1.368-.484 2.536-1.451 3.504-.968.967-2.136 1.451-3.504 1.451h-12.71c-1.369 0-2.537-.484-3.504-1.451C7.484 25.229 7 24.06 7 22.693v-7.756Zm27.032 0V9.982c0-1.368.484-2.536 1.452-3.503.967-.968 2.135-1.452 3.503-1.452h12.71c1.37 0 2.537.484 3.505 1.452.967.967 1.45 2.135 1.45 3.503v12.711c0 1.368-.483 2.536-1.45 3.504-.968.967-2.136 1.451-3.504 1.451h-12.71c-1.37 0-2.537-.484-3.505-1.451-.967-.968-1.45-2.136-1.45-3.504v-7.756ZM7 41.56v-4.955c0-1.368.484-2.536 1.451-3.504.968-.967 2.136-1.451 3.504-1.451h12.71c1.369 0 2.537.484 3.504 1.451.968.968 1.451 2.136 1.451 3.504v12.71c0 1.369-.483 2.537-1.45 3.504-.968.968-2.136 1.451-3.504 1.451H11.955c-1.368 0-2.536-.483-3.504-1.45C7.484 51.851 7 50.683 7 49.315V41.56Z" stroke="#1F1F1F" stroke-width="2.2"/><path opacity=".3" d="M34.28 32.378h15.719c.075.001.146.253.2.7.052.446.082 1.051.082 1.682v17.367c0 .631-.03 1.237-.082 1.683-.053.447-.656.176-.656.7l-13.279-.738c1.193-.738-1.422-1.03-1.475-1.475-.053-.446-.738.466-.738-.165V34.298c0-.51.024-.998.067-1.358.043-.36.1-.562.161-.562Z" fill="#7291A6"/><path fill-rule="evenodd" clip-rule="evenodd" d="M34.032 41.56v-4.955c0-1.368.484-2.536 1.452-3.504.967-.967 2.135-1.451 3.503-1.451h12.71c1.37 0 2.537.484 3.505 1.451.967.968 1.45 2.136 1.45 3.504v12.71c0 1.369-.483 2.537-1.45 3.504-.968.968-2.136 1.451-3.504 1.451h-12.71c-1.37 0-2.537-.483-3.505-1.45-.967-.968-1.45-2.136-1.45-3.504V41.56Z" fill="#000" fill-opacity=".01" stroke="#EB7C4F" stroke-width="2.2"/></svg>