<svg width="45" height="44" fill="none" xmlns="http://www.w3.org/2000/svg"><g clip-path="url(#icon/cat/sofas__a)"><path opacity=".3" fill-rule="evenodd" clip-rule="evenodd" d="M30.932 11.02H8.835c-.155 0-.423-.117-.423.22l-2.5 4.26-.5 3c.178.01.5.5 1.5 1.5.177-.032-.143.393 0 .5.144.107-.5.5 0 .5v3c.017.244 3.216-.03 3.5 0h10.5c6.5 1.5 10.271.078 10.33 0 .06-.078.018-3.419 0-3.514v-9.252c0-.227-.107-.215-.31-.215Z" fill="#7291A6"/><path d="M40.746 17.954h-.734v-1.467a5.867 5.867 0 0 0-5.866-5.866H10.679a5.867 5.867 0 0 0-5.867 5.866v1.467H4.08a3.637 3.637 0 0 0-3.667 3.667v5.866a3.638 3.638 0 0 0 3.667 3.667h.293v1.613a.69.69 0 0 0 .734.734h2.64a.688.688 0 0 0 .733-.734v-1.613h28.16v1.613a.688.688 0 0 0 .733.734h2.64a.689.689 0 0 0 .734-.734v-1.613h.146a3.635 3.635 0 0 0 3.667-3.667v-5.866a3.857 3.857 0 0 0-3.813-3.667ZM6.279 16.487a4.4 4.4 0 0 1 4.4-4.4h23.467a4.4 4.4 0 0 1 4.4 4.4v2.2a3.826 3.826 0 0 0-1.467 2.934v2.2H7.746v-2.2a3.828 3.828 0 0 0-1.467-2.934v-2.2Zm.587 15.547H5.692v-.88h1.174v.88Zm32.266 0H37.96v-.88h1.173v.88Zm3.814-4.547a2.259 2.259 0 0 1-2.2 2.2H4.079a2.259 2.259 0 0 1-2.2-2.2v-5.866a2.259 2.259 0 0 1 2.2-2.2 2.259 2.259 0 0 1 2.2 2.2v2.933a.69.69 0 0 0 .733.733h30.8a.69.69 0 0 0 .734-.733v-2.933a2.2 2.2 0 1 1 4.4 0v5.866Z" fill="#1F1F1F"/><path d="M13.026 28.747a.587.587 0 1 0 0-1.174.587.587 0 0 0 0 1.174Zm9.386 0a.587.587 0 1 0 0-1.173.587.587 0 0 0 0 1.173Zm9.387 0a.587.587 0 1 0 0-1.173.587.587 0 0 0 0 1.173Z" fill="#EB7C4F"/></g><defs><clipPath id="icon/cat/sofas__a"><path fill="#fff" transform="translate(.412)" d="M0 0h44v44H0z"/></clipPath></defs></svg>