<svg width="41" height="41" fill="none" xmlns="http://www.w3.org/2000/svg"><circle cx="20.5" cy="20.5" r="20.5" fill="#fff"/><path d="M17.7 17.296v-4.052c.114-2.197 1.287-3.381 3.378-3.381 2.095 0 3.251 1.19 3.325 3.407v4.026h1.514v-3.964c-.112-3.193-1.664-4.707-4.815-4.707-3.151 0-4.738 1.516-4.916 4.703v3.968H17.7Zm1.016 0h4.672v-4.01c-.056-1.665-.777-2.408-2.31-2.408-1.532 0-2.273.745-2.362 2.405v4.013Zm-3.545 0v-4.009c.204-3.733 2.233-5.678 5.93-5.678 3.702 0 5.7 1.95 5.832 5.705v3.982h2.192c.56 0 1.016.454 1.016 1.015v13.203c0 .561-.455 1.016-1.016 1.016h-16.25c-.56 0-1.016-.455-1.016-1.016V18.311c0-.56.455-1.015 1.016-1.015h2.296Zm-2.093 1.218v12.797h15.844V18.514H13.078ZM21 28.874a3.86 3.86 0 1 1 0-7.72 3.86 3.86 0 0 1 0 7.72Zm0-1.007a2.853 2.853 0 1 0 0-5.705 2.853 2.853 0 0 0 0 5.705Z" fill="#000"/><path opacity=".3" d="M19.105 27.112a2.825 2.825 0 0 1 3.992-3.992 2.825 2.825 0 0 1-3.992 3.992Zm.213-1.68.264.28c.21.22.43.447.647.667a.4.4 0 0 0 .3.124c.017-.004.035 0 .051-.003a.359.359 0 0 0 .19-.112c.68-.793 1.359-1.586 2.029-2.385a.335.335 0 0 0 .093-.246.299.299 0 0 0-.128-.2.348.348 0 0 0-.255-.055.354.354 0 0 0-.225.134l-.234.269c-.035.038-.068.085-.11.125l-1.435 1.672c-.021-.019-.033-.032-.054-.05-.076-.078-.143-.15-.22-.228-.152-.155-.307-.317-.468-.47a.315.315 0 0 0-.225-.104.346.346 0 0 0-.24.085c-.143.115-.17.308-.06.443.03.013.057.031.08.054Z" fill="#000"/></svg>