<svg width="118" height="22" fill="none" xmlns="http://www.w3.org/2000/svg"><path d="M38.744 13.14v6.796h-3.746V2.626h7.813v3.237h-4.067v4.147h3.8v3.13h-3.8ZM48.75 2.625v17.311h-3.745V2.626h3.746Zm12.82 0-2.755 8.642 3.103 8.67h-3.906l-1.82-6.048-1.819 6.047H50.44l3.104-8.669-2.702-8.642h3.638l1.713 5.592 1.712-5.592h3.666Zm1.049 3.185V2.624h9.364V5.81h-2.81v14.127h-3.745V5.81h-2.81Zm17.256-.482h3.745v11.344c0 2.354-1.106 3.532-3.317 3.532h-3.318c-2.212 0-3.318-1.178-3.318-3.532V5.328h3.746v11.665c0 .143.045.268.134.375.107.107.232.16.374.16h1.445a.432.432 0 0 0 .348-.16.514.514 0 0 0 .16-.375V5.328Zm10.055 7.518v7.09h-3.747V2.626h6.662c2.212 0 3.318 1.177 3.318 3.531v2.007c0 1.427-.508 2.336-1.525 2.729.892.32 1.338 1.052 1.338 2.194v6.85H92.23V13.38c0-.357-.17-.535-.508-.535h-1.793Zm0-7.679v5.057h1.98a.431.431 0 0 0 .347-.16.513.513 0 0 0 .16-.375V5.702a.513.513 0 0 0-.16-.374.431.431 0 0 0-.348-.16h-1.98Zm12.384 11.665h4.147v3.104h-7.893V2.626h7.893v3.05h-4.147v4.066h3.88v2.943h-3.88v4.147ZM117.216 5.06l-5.164 12.094h5.164v2.782h-9.07v-2.3l5.191-12.201h-5.03v-2.81h8.909V5.06Z" fill="#000"/><path d="M16.254 17.555c0 2.039-1.652 3.445-3.69 3.445-2.039 0-3.691-1.406-3.691-3.445h7.381Z" stroke="#EB7C4F" stroke-width="1.968" stroke-linecap="round" stroke-linejoin="round"/><path d="M24.374 17.556H1C1 7.222 12.81 7.714 12.564 7.714c9.103.246 11.646 6.397 11.81 9.842ZM12.564 1.563v6.15" stroke="#7291A6" stroke-width="1.968" stroke-linecap="round" stroke-linejoin="round"/></svg>