<svg width="147" height="147" fill="none" xmlns="http://www.w3.org/2000/svg"><path d="M73.5 147c40.593 0 73.5-32.907 73.5-73.5S114.093 0 73.5 0 0 32.907 0 73.5 32.907 147 73.5 147Z" fill="#FDF2ED"/><circle cx="73.745" cy="33.509" r="5" stroke="#414A56" stroke-width="5.018"/><circle cx="74.382" cy="112.034" r="9.673" fill="#95E6F9"/><rect x="39" y="99.562" width="68.982" height="11.2" rx="5.6" fill="#F90"/><path d="M46.891 61.636c0-14.761 11.966-26.727 26.727-26.727 14.761 0 26.727 11.966 26.727 26.727v37.927H46.891V61.636Z" fill="#FC6"/><path d="M46.891 72.074h35.89a1.273 1.273 0 0 1 0 2.545h-35.89v-2.545Zm0 8.397h53.454v9.164H46.891z" fill="#F90"/><circle cx="95.891" cy="45.73" r="13.109" fill="#FF5987"/><path d="m93.727 44.742 1.757-.794v6.812h2.49V40.512l-4.247 2.138v2.093Z" fill="#fff"/><circle cx="96.5" cy="33.5" r="2.5" fill="#C4C4C4"/></svg>