<svg width="32" height="32" fill="none" xmlns="http://www.w3.org/2000/svg"><path d="M0 10C0 4.477 4.477 0 10 0h12c5.523 0 10 4.477 10 10v12c0 5.523-4.477 10-10 10H10C4.477 32 0 27.523 0 22V10Z" fill="#F1F1F1"/><path clip-rule="evenodd" d="m24.628 11.746-.622-1.08a1.913 1.913 0 0 0-2.609-.705v0a1.904 1.904 0 0 1-2.609-.678 1.83 1.83 0 0 1-.256-.915v0A1.914 1.914 0 0 0 16.62 6.4h-1.254a1.904 1.904 0 0 0-1.904 1.913v0a1.913 1.913 0 0 1-1.913 1.886 1.83 1.83 0 0 1-.915-.257v0a1.913 1.913 0 0 0-2.609.705l-.668 1.099a1.913 1.913 0 0 0 .696 2.608v0a1.913 1.913 0 0 1 0 3.314v0a1.904 1.904 0 0 0-.696 2.6v0l.631 1.088a1.913 1.913 0 0 0 2.61.742v0a1.895 1.895 0 0 1 2.599.696c.164.277.253.593.256.915v0c0 1.056.857 1.913 1.913 1.913h1.254c1.053 0 1.908-.85 1.913-1.904v0a1.904 1.904 0 0 1 1.913-1.913c.322.009.636.097.915.256v0a1.913 1.913 0 0 0 2.61-.695v0l.658-1.099a1.904 1.904 0 0 0-.695-2.608v0a1.904 1.904 0 0 1-.696-2.61 1.88 1.88 0 0 1 .696-.695v0a1.913 1.913 0 0 0 .695-2.6v0-.008Z" stroke="#808083" stroke-width="1.5" stroke-linecap="round" stroke-linejoin="round"/><circle cx="15.996" cy="16.011" r="2.636" stroke="#808083" stroke-width="1.5" stroke-linecap="round" stroke-linejoin="round"/></svg>