<svg width="32" height="32" fill="none" xmlns="http://www.w3.org/2000/svg"><path d="M0 10C0 4.477 4.477 0 10 0h12c5.523 0 10 4.477 10 10v12c0 5.523-4.477 10-10 10H10C4.477 32 0 27.523 0 22V10Z" fill="#F1F1F1"/><circle cx="13.39" cy="10.844" r="4.344" stroke="#808083" stroke-width="1.5" stroke-linecap="round" stroke-linejoin="round"/><path d="M15.379 18.574a22.771 22.771 0 0 0-3.986 0c-.716.05-1.428.15-2.13.3-.974.2-2.147.64-2.563 1.473a2.072 2.072 0 0 0 0 1.772c.424.874 1.59 1.273 2.571 1.464.698.157 1.408.26 2.122.308.25.05.49.05.74.05 1.082.059 2.166.042 3.246-.05" stroke="#808083" stroke-width="1.5" stroke-linecap="round" stroke-linejoin="round"/><path clip-rule="evenodd" d="M26.111 16.848a.576.576 0 0 1 .39.544v3.584a4.1 4.1 0 0 1-1.016 2.7c-.325.372-.738.663-1.175.898l-1.897 1.017-1.9-1.018c-.44-.235-.852-.525-1.178-.898a4.1 4.1 0 0 1-1.017-2.701v-3.582c0-.245.156-.463.39-.544l3.509-1.224a.585.585 0 0 1 .385 0l3.51 1.224Z" stroke="#808083" stroke-width="1.5" stroke-linecap="round" stroke-linejoin="round"/></svg>