<svg width="32" height="32" fill="none" xmlns="http://www.w3.org/2000/svg"><path d="M0 10C0 4.477 4.477 0 10 0h12c5.523 0 10 4.477 10 10v12c0 5.523-4.477 10-10 10H10C4.477 32 0 27.523 0 22V10Z" fill="#F1F1F1"/><path clip-rule="evenodd" d="M16.02 6C10.21 6 6 10.746 6 16.015c0 1.683.49 3.414 1.35 4.997.16.26.18.59.07.902l-.67 2.243c-.15.541.31.94.82.78l2.02-.6c.55-.18.98.05 1.49.361C12.54 25.558 14.36 26 16 26c4.96 0 10-3.836 10-10.015C26 10.656 21.7 6 16.02 6Z" stroke="#808083" stroke-width="1.5" stroke-linecap="round" stroke-linejoin="round"/><path d="M21 18.5H11m6-5h-6" stroke="#808083" stroke-width="1.5" stroke-linecap="round" stroke-linejoin="round"/></svg>