<svg width="32" height="32" fill="none" xmlns="http://www.w3.org/2000/svg"><path d="M0 10C0 4.477 4.477 0 10 0h12c5.523 0 10 4.477 10 10v12c0 5.523-4.477 10-10 10H10C4.477 32 0 27.523 0 22V10Z" fill="#F1F1F1"/><path d="M13.318 15.833a4.086 4.086 0 1 1 6.648-3.182c0 1.11-.733 2.327-.733 2.327" stroke="#808083" stroke-width="1.283" stroke-linecap="round" stroke-linejoin="round"/><path d="M9.4 12.413a6.413 6.413 0 1 1 11.193 4.275c-.314.299-.511.412-.932.428h-3.848" stroke="#808083" stroke-width="1.283" stroke-linecap="round" stroke-linejoin="round"/><path d="M17.095 16.945h-1.71" stroke="#808083" stroke-width="1.71" stroke-linecap="round" stroke-linejoin="round"/><path clip-rule="evenodd" d="M8.4 23.201a2.215 2.215 0 0 1 .22-.97c.457-.915 1.748-1.4 2.819-1.62a16.794 16.794 0 0 1 2.343-.33 25.058 25.058 0 0 1 4.384 0 17.15 17.15 0 0 1 2.344.33c1.07.22 2.361.66 2.819 1.62a2.27 2.27 0 0 1 0 1.95c-.458.96-1.748 1.4-2.82 1.61a15.71 15.71 0 0 1-2.343.34c-1.187.1-2.38.119-3.57.054-.274 0-.54 0-.814-.054a15.428 15.428 0 0 1-2.334-.34c-1.08-.21-2.362-.65-2.828-1.61a2.279 2.279 0 0 1-.22-.98Z" stroke="#808083" stroke-width="1.5" stroke-linecap="round" stroke-linejoin="round"/></svg>