<svg width="32" height="32" fill="none" xmlns="http://www.w3.org/2000/svg"><path d="M0 10C0 4.477 4.477 0 10 0h12c5.523 0 10 4.477 10 10v12c0 5.523-4.477 10-10 10H10C4.477 32 0 27.523 0 22V10Z" fill="#F1F1F1"/><path d="M22 15H9.5a2 2 0 0 0-2 2v5.5a2 2 0 0 0 2 2H22a2 2 0 0 0 2-2V17a2 2 0 0 0-2-2Z" stroke="#808083" stroke-width="1.5"/><path d="m7.5 17.5.25-2.5m0 0 1.371-5.485A2 2 0 0 1 11.061 8h9.43a2 2 0 0 1 1.923 1.45l1.509 5.28c.051.18.077.364.077.55v4.22l-.302-2.72A2 2 0 0 0 21.71 15H7.75ZM16 8v7" stroke="#808083" stroke-width="1.5"/></svg>