<svg width="32" height="32" fill="none" xmlns="http://www.w3.org/2000/svg"><path d="M0 10C0 4.477 4.477 0 10 0h12c5.523 0 10 4.477 10 10v12c0 5.523-4.477 10-10 10H10C4.477 32 0 27.523 0 22V10Z" fill="#F1F1F1"/><path d="M20.444 13.517v-2.089A4.429 4.429 0 0 0 16.016 7a4.427 4.427 0 0 0-4.447 4.409v2.108" stroke="#808083" stroke-width="1.5" stroke-linecap="round" stroke-linejoin="round"/><path clip-rule="evenodd" d="M19.724 25H12.29a3.69 3.69 0 0 1-3.69-3.69v-4.173a3.69 3.69 0 0 1 3.69-3.69h7.434a3.69 3.69 0 0 1 3.69 3.69v4.173a3.69 3.69 0 0 1-3.69 3.69Z" stroke="#808083" stroke-width="1.5" stroke-linecap="round" stroke-linejoin="round"/><path d="M16.006 18.144v2.16" stroke="#808083" stroke-width="1.5" stroke-linecap="round" stroke-linejoin="round"/></svg>