<svg width="164" height="160" fill="none" xmlns="http://www.w3.org/2000/svg"><circle cx="42.096" cy="42.286" r="42.096" fill="#F0F7FF"/><circle cx="42.878" cy="28.359" r="18.779" fill="#FFE1BA"/><path d="M42.878 75.462c-14.206 0-21.596-6.886-26.192-12.676 5.02-9.317 14.867-15.648 26.192-15.648S64.05 53.469 69.07 62.785c-10.074 11.58-21.152 12.676-26.192 12.676Z" fill="#6680FF"/><circle cx="121.905" cy="117.714" r="42.096" fill="#F0F7FF"/><circle cx="122.687" cy="103.786" r="18.779" fill="#FFE1BA"/><path d="M122.687 150.889c-14.206 0-21.595-6.885-26.192-12.675 5.02-9.317 14.867-15.649 26.192-15.649s21.172 6.332 26.192 15.649c-10.074 11.58-21.152 12.675-26.192 12.675Z" fill="#6680FF"/><path d="M23.16 95.336c-1.721 16.588 2.88 54.834 51.328 51.328" stroke="#61729B" stroke-width="9.389" stroke-linecap="round"/><path d="m10.328 106.76 11.768-11.05a1.565 1.565 0 0 1 2.135-.007l11.918 11.057m108.76-41.244c1.721-16.588-2.88-54.834-51.329-51.329" stroke="#61729B" stroke-width="9.389" stroke-linecap="round"/><path d="m157.74 54.092-11.767 11.05a1.564 1.564 0 0 1-2.135.006L131.92 54.092" stroke="#61729B" stroke-width="9.389" stroke-linecap="round"/></svg>