<svg width="41" height="41" fill="none" xmlns="http://www.w3.org/2000/svg"><circle cx="20.5" cy="20.5" r="20.5" fill="#fff"/><path d="M14.142 21.128c1.815-.476 3.884-.32 5.141.384.564.316 1.207.442 2.305.511l.386.022c.551.031.803.049 1.108.084.936.11 1.555.646 1.81 1.535l3.57-.762c1.111-.233 1.953-.031 2.437.66.467.67.467 1.419.015 2.156l-.087.143-.157.057c-3.452 1.26-5.818 2.091-7.104 2.496-1.366.431-2.503.437-3.396-.012l-6.03-1.89a.36.36 0 0 1-.357.323H11.15a.36.36 0 0 1-.36-.36v-5.507a.36.36 0 0 1 .36-.36h2.634a.36.36 0 0 1 .36.36v.16Zm0 .996v3.384l6.393 2.005.038.02c.643.335 1.54.335 2.706-.032 1.246-.393 3.547-1.201 6.896-2.422.178-.359.154-.66-.062-.968-.227-.325-.68-.434-1.452-.272l-3.627.774c-.034 1.018-.826 1.575-2.183 1.575h-2.424a.479.479 0 1 1 0-.958h2.424c.862 0 1.212-.192 1.226-.666l-.034-.272c-.094-.773-.426-1.136-1.072-1.211-.28-.033-.518-.05-1.05-.08a53.686 53.686 0 0 1-.393-.022c-1.232-.077-1.99-.226-2.713-.631-1.08-.605-3.031-.723-4.673-.224Zm-2.394-.558v4.311h1.436v-4.31h-1.436Zm4.19-.704v-8.396a.36.36 0 0 1 .36-.36h13.171c.198 0 .36.162.36.36v10.398c-.22-.047-.7-.064-.959-.05v-9.75H24.8v4.192a.36.36 0 0 1-.605.262l-1.294-1.21-1.332 1.213a.36.36 0 0 1-.601-.265v-4.191h-4.072v7.797a15.22 15.22 0 0 0-.958 0Zm5.987-7.797v2.898l.782-.772a.27.27 0 0 1 .39.003l.744.755v-2.884h-1.916Z" fill="#000"/><path opacity=".3" d="M35.29 21.045c-.084-.003-.468.016-1.153.055a.585.585 0 0 1-.056-1.168 17.68 17.68 0 0 1 1.196-.042c.148.002.29.063.394.169a.617.617 0 0 1 .168.45.514.514 0 0 1-.548.536Zm-28.72-.002a.577.577 0 0 1 .014-1.153c.394 0 .788.014 1.167.042a.563.563 0 0 1 .55.605.58.58 0 0 1-.592.563l-1.14-.056ZM21.473 6.55v1.196a.556.556 0 0 1-.577.548.565.565 0 0 1-.577-.548 17.027 17.027 0 0 1 0-1.196.556.556 0 0 1 .577-.549.556.556 0 0 1 .577.549Zm-.59 29.187a.57.57 0 0 1-.578-.576 16.24 16.24 0 0 1 0-1.168.558.558 0 0 1 .577-.563h.014c.313 0 .57.25.577.563v1.182a.572.572 0 0 1-.59.562Zm12.394-7.53a28.97 28.97 0 0 0-1.026-.528.585.585 0 0 1 .535-1.04c.367.18.728.372 1.057.561.127.077.219.2.256.343a.616.616 0 0 1-.079.475.513.513 0 0 1-.743.19ZM8.405 13.845a.577.577 0 1 1 .589-.992c.34.197.675.406.99.62a.563.563 0 0 1 .172.799.58.58 0 0 1-.793.192l-.958-.62Zm20.154-5.101-.598 1.035a.555.555 0 0 1-.774.187.565.565 0 0 1-.225-.763c.192-.36.388-.702.598-1.036a.556.556 0 0 1 .773-.187.556.556 0 0 1 .226.764ZM13.452 33.725a.571.571 0 0 1-.21-.787c.177-.337.374-.678.583-1.012a.559.559 0 0 1 .78-.199l.013.007a.577.577 0 0 1 .218.776l-.59 1.023a.571.571 0 0 1-.794.192Zm14.5-.323c-.04-.074-.248-.398-.625-.971a.585.585 0 0 1 .983-.633c.229.34.445.686.635 1.015.072.13.09.282.05.425a.616.616 0 0 1-.305.371.513.513 0 0 1-.738-.207ZM13.593 8.528a.577.577 0 0 1 1.006-.564 16 16 0 0 1 .547 1.032.563.563 0 0 1-.25.778.58.58 0 0 1-.782-.23l-.52-1.016Zm20.004 5.66-1.035.597a.556.556 0 0 1-.764-.225.565.565 0 0 1 .187-.774 16.83 16.83 0 0 1 1.036-.598.555.555 0 0 1 .763.226.556.556 0 0 1-.187.774ZM8.025 28.27a.57.57 0 0 1 .211-.788c.322-.202.663-.4 1.011-.584a.558.558 0 0 1 .776.218l.007.012a.577.577 0 0 1-.199.78l-1.023.592a.571.571 0 0 1-.783-.23Zm20.965-5.42c-.094.014-.19.031-.288.052l-3.57.762c-.255-.889-.874-1.425-1.81-1.535a16.996 16.996 0 0 0-1.109-.084c-.2-.01-.28-.015-.386-.022-1.098-.069-1.74-.195-2.305-.511-.606-.34-1.402-.552-2.266-.627v-7.7H28.99v9.665Z" fill="#000"/></svg>