<svg width="147" height="147" fill="none" xmlns="http://www.w3.org/2000/svg"><path d="M73.5 147c40.593 0 73.5-32.907 73.5-73.5S114.093 0 73.5 0 0 32.907 0 73.5 32.907 147 73.5 147Z" fill="#FDF2ED"/><path d="m38.529 111.443-9.373-46.862v-1.748h97.696l-9.691 48.61c-.889 5.337-6.301 6.883-8.895 6.989-.371.053-12.804.127-59.57 0-7.117.127-9.744-4.606-10.167-6.989Z" fill="#F9D9CC"/><path d="m28.52 111.443-9.372-46.862v-1.748h97.696l-9.69 48.61c-.89 5.337-6.302 6.883-8.896 6.989-.37.053-12.804.127-59.57 0-7.117.127-9.744-4.606-10.167-6.989Z" fill="#fff"/><rect x="12" y="53.62" width="122" height="11.755" rx="5.878" fill="#EB7C4F"/><rect x="79.032" y="23.755" width="48.56" height="10.666" rx="5.333" transform="rotate(49.145 79.032 23.755)" fill="#D6E4EA"/><rect x="69.505" y="107.312" width="29.865" height="7.307" rx="3.654" transform="rotate(-90 69.505 107.312)" fill="#D6E4EA"/><rect x="89.203" y="106.511" width="29.865" height="7.307" rx="3.654" transform="rotate(-79.677 89.203 106.511)" fill="#D6E4EA"/><rect width="29.865" height="7.307" rx="3.654" transform="scale(-1 1) rotate(-79.677 35.677 87.003)" fill="#D6E4EA"/><rect width="48.56" height="10.666" rx="5.333" transform="scale(-1 1) rotate(49.145 -59.614 -61.688)" fill="#D6E4EA"/></svg>