<svg width="40" height="41" fill="none" xmlns="http://www.w3.org/2000/svg"><path fill-rule="evenodd" clip-rule="evenodd" d="M14.048 31.361 8.08 34.616c-.35.191-.665.426-.957.682A19.908 19.908 0 0 0 20 40a19.92 19.92 0 0 0 12.803-4.637 5.295 5.295 0 0 0-1.052-.705l-6.39-3.195a2.437 2.437 0 0 1-1.347-2.18v-2.506c.179-.205.384-.468.604-.778a14.71 14.71 0 0 0 1.986-4.003 2.007 2.007 0 0 0 1.424-1.91V17.41a2 2 0 0 0-.669-1.483v-3.869s.795-6.02-7.359-6.02c-8.153 0-7.358 6.02-7.358 6.02v3.869a1.995 1.995 0 0 0-.669 1.483v2.676c0 .706.37 1.326.925 1.684.669 2.911 2.42 5.007 2.42 5.007v2.445a2.44 2.44 0 0 1-1.27 2.138Z" fill="#D1D1D1"/><path fill-rule="evenodd" clip-rule="evenodd" d="M20.342.003C9.298-.185.192 8.615.003 19.659c-.107 6.262 2.684 11.89 7.128 15.633a5.29 5.29 0 0 1 .948-.675l5.968-3.255a2.438 2.438 0 0 0 1.27-2.14v-2.445s-1.751-2.095-2.42-5.006a2.007 2.007 0 0 1-.924-1.684V17.41c0-.588.261-1.114.668-1.483V12.06S11.846 6.038 20 6.038s7.358 6.02 7.358 6.02v3.87c.408.368.67.894.67 1.482v2.677c0 .9-.604 1.656-1.424 1.91a14.699 14.699 0 0 1-1.987 4.002 9.57 9.57 0 0 1-.604.778v2.507c0 .923.522 1.768 1.347 2.18l6.39 3.195c.384.191.73.434 1.05.703 4.31-3.594 7.094-8.968 7.197-15.02.19-11.044-8.61-20.15-19.655-20.339Z" fill="#E6E5E5"/></svg>